<?xml version="1.0" encoding="UTF-8"?>
<svg xmlns="http://www.w3.org/2000/svg" viewBox="0 0 1689.95 1961.46">
  <defs>
    <style>
      .cls-1 {
        stroke-dasharray: 5.55 7.4;
      }

      .cls-1, .cls-2, .cls-3, .cls-4, .cls-5, .cls-6, .cls-7 {
        fill: none;
      }

      .cls-1, .cls-3, .cls-5, .cls-6, .cls-7 {
        stroke: #fff;
      }

      .cls-1, .cls-3, .cls-7 {
        stroke-miterlimit: 10;
        stroke-width: .9px;
      }

      .cls-2 {
        stroke: #d20a11;
      }

      .cls-2, .cls-4 {
        stroke-linecap: square;
        stroke-width: 2.7px;
      }

      .cls-2, .cls-4, .cls-6 {
        stroke-linejoin: round;
      }

      .cls-3 {
        stroke-dasharray: 5.4 7.2;
      }

      .cls-4 {
        stroke: #00b1eb;
      }

      .cls-5, .cls-6 {
        stroke-width: 3.6px;
      }

      .cls-6 {
        stroke-linecap: round;
      }
    </style>
  </defs>
  <g id="_2" data-name="2">
    <g>
      <g>
        <g>
          <path class="cls-6" d="M697.19,998.99l8.45-29.45c.27-.95-.25-2.05-1.16-2.43l-16.4-6.96c-2.82-1.2-3.47-4.91-1.21-6.99l27.79-25.6c2.58-2.37,6.75-.76,7.07,2.73l.27,3.05c.09.99.97,1.76,1.96,1.73l1.2-.04c2.54-.09,4.59,2.07,4.36,4.6l-4.4,48.64c-.09.99-.72,2.38-1.4,3.1l-12.44,13.1c-.68.72-2.04,1.18-3.02,1.04l-7.63-1.16c-2.52-.38-4.13-2.89-3.43-5.34Z"/>
          <path class="cls-6" d="M697.19,998.99l8.45-29.45c.27-.95-.25-2.05-1.16-2.43l-16.4-6.96c-2.82-1.2-3.47-4.91-1.21-6.99l27.79-25.6c2.58-2.37,6.75-.76,7.07,2.73l.27,3.05c.09.99.97,1.76,1.96,1.73l1.2-.04c2.54-.09,4.59,2.07,4.36,4.6l-4.4,48.64c-.09.99-.72,2.38-1.4,3.1l-12.44,13.1c-.68.72-2.04,1.18-3.02,1.04l-7.63-1.16c-2.52-.38-4.13-2.89-3.43-5.34Z"/>
        </g>
        <g>
          <path class="cls-6" d="M685.19,958.22l-6.13,5.66c-1.24,1.14-3.2-.06-2.74-1.68l1.44-5.06c.27-.95-.15-2.22-.95-2.81l-33.77-25.41c-.79-.6-2.24-.96-3.22-.8l-28.98,4.53c-.98.15-2.52-.04-3.44-.42l-41.32-17.39c-.91-.38-2.2-1.3-2.86-2.04l-21.12-23.65c-.66-.74-.89-2.09-.52-3.01l4.1-10.1c.37-.92,1.45-1.91,2.4-2.2l2.24-.69c.95-.29,1.72.28,1.72,1.27v7.37"/>
          <path class="cls-6" d="M685.19,958.22l-6.13,5.66c-1.24,1.14-3.2-.06-2.74-1.68l1.44-5.06c.27-.95-.15-2.22-.95-2.81l-33.77-25.41c-.79-.6-2.24-.96-3.22-.8l-28.98,4.53c-.98.15-2.52-.04-3.44-.42l-41.32-17.39c-.91-.38-2.2-1.3-2.86-2.04l-21.12-23.65c-.66-.74-.89-2.09-.52-3.01l4.1-10.1c.37-.92,1.45-1.91,2.4-2.2l2.24-.69c.95-.29,1.72.28,1.72,1.27v7.37"/>
        </g>
        <g>
          <path class="cls-6" d="M616.04,1156.84l-13.21-21.77c-.51-.85-1.68-1.86-2.59-2.25l-33.6-14.37c-.91-.39-1.91-1.48-2.22-2.42l-14.12-43.03c-.31-.94-1.34-1.47-2.28-1.18l-64.7,19.98c-.95.29-2.44.91-3.31,1.38l-58.32,30.96"/>
          <path class="cls-6" d="M616.04,1156.84l-13.21-21.77c-.51-.85-1.68-1.86-2.59-2.25l-33.6-14.37c-.91-.39-1.91-1.48-2.22-2.42l-14.12-43.03c-.31-.94-1.34-1.47-2.28-1.18l-64.7,19.98c-.95.29-2.44.91-3.31,1.38l-58.32,30.96"/>
          <path class="cls-6" d="M616.04,1156.84l-13.21-21.77c-.51-.85-1.68-1.86-2.59-2.25l-33.6-14.37c-.91-.39-1.91-1.48-2.22-2.42l-14.12-43.03c-.31-.94-1.34-1.47-2.28-1.18l-64.7,19.98c-.95.29-2.44.91-3.31,1.38l-58.32,30.96"/>
        </g>
        <g>
          <path class="cls-6" d="M718.94,996.95l9.97,5.04c2.83,1.43,3.6,5.1,1.6,7.55l-18.26,22.28c-.63.77-.47,1.85.35,2.4l12.3,8.34c1.74,1.18,2.55,3.33,2,5.37l-8.99,33.75c-.25.96-1.14,2.19-1.97,2.73l-13.05,8.62c-.83.55-1.82.25-2.22-.66l-8.97-20.66c-.39-.91-1.49-1.42-2.44-1.13l-12.85,3.88c-.95.29-1.37,1.25-.93,2.14l2.06,4.22c.43.89.15,2.11-.64,2.72l-2.38,1.83c-.78.6-1.22,1.88-.96,2.84l1.52,5.64c.26.96.22,2.51-.09,3.45l-7.54,23.12c-.31.94-1.23,2.17-2.05,2.73l-49.38,33.7"/>
          <path class="cls-6" d="M718.94,996.95l9.97,5.04c2.83,1.43,3.6,5.1,1.6,7.55l-18.26,22.28c-.63.77-.47,1.85.35,2.4l12.3,8.34c1.74,1.18,2.55,3.33,2,5.37l-8.99,33.75c-.25.96-1.14,2.19-1.97,2.73l-13.05,8.62c-.83.55-1.82.25-2.22-.66l-8.97-20.66c-.39-.91-1.49-1.42-2.44-1.13l-12.85,3.88c-.95.29-1.37,1.25-.93,2.14l2.06,4.22c.43.89.15,2.11-.64,2.72l-2.38,1.83c-.78.6-1.22,1.88-.96,2.84l1.52,5.64c.26.96.22,2.51-.09,3.45l-7.54,23.12c-.31.94-1.23,2.17-2.05,2.73l-49.38,33.7"/>
        </g>
        <g>
          <path class="cls-6" d="M692.81,1156.84l16.52-35.67c.42-.9.39-2.36-.05-3.24l-10.18-20.24c-.44-.88-.13-2.05.69-2.6l1.6-1.06"/>
          <path class="cls-6" d="M692.81,1156.84l16.52-35.67c.42-.9.39-2.36-.05-3.24l-10.18-20.24c-.44-.88-.13-2.05.69-2.6l1.6-1.06"/>
          <path class="cls-6" d="M692.81,1156.84l16.52-35.67c.42-.9.39-2.36-.05-3.24l-10.18-20.24c-.44-.88-.13-2.05.69-2.6l1.6-1.06"/>
        </g>
      </g>
      <g>
        <path class="cls-4" d="M697.19,998.99l8.45-29.45c.27-.95-.25-2.05-1.16-2.43l-16.4-6.96c-2.82-1.2-3.47-4.91-1.21-6.99l27.79-25.6c2.58-2.37,6.75-.76,7.07,2.73l.27,3.05c.09.99.97,1.76,1.96,1.73l1.2-.04c2.54-.09,4.59,2.07,4.36,4.6l-4.4,48.64c-.09.99-.72,2.38-1.4,3.1l-12.44,13.1c-.68.72-2.04,1.18-3.02,1.04l-7.63-1.16c-2.52-.38-4.13-2.89-3.43-5.34Z"/>
        <path class="cls-4" d="M685.19,958.22l-6.13,5.66c-1.24,1.14-3.2-.06-2.74-1.68l1.44-5.06c.27-.95-.15-2.22-.95-2.81l-33.77-25.41c-.79-.6-2.24-.96-3.22-.8l-28.98,4.53c-.98.15-2.52-.04-3.44-.42l-41.32-17.39c-.91-.38-2.2-1.3-2.86-2.04l-21.12-23.65c-.66-.74-.89-2.09-.52-3.01l4.1-10.1c.37-.92,1.45-1.91,2.4-2.2l2.24-.69c.95-.29,1.72.28,1.72,1.27v7.37"/>
        <g>
          <path class="cls-4" d="M616.04,1156.84l-13.21-21.77c-.51-.85-1.68-1.86-2.59-2.25l-33.6-14.37c-.91-.39-1.91-1.48-2.22-2.42l-14.12-43.03c-.31-.94-1.34-1.47-2.28-1.18l-64.7,19.98c-.95.29-2.44.91-3.31,1.38l-58.32,30.96"/>
          <path class="cls-3" d="M616.04,1156.84l-13.21-21.77c-.51-.85-1.68-1.86-2.59-2.25l-33.6-14.37c-.91-.39-1.91-1.48-2.22-2.42l-14.12-43.03c-.31-.94-1.34-1.47-2.28-1.18l-64.7,19.98c-.95.29-2.44.91-3.31,1.38l-58.32,30.96"/>
        </g>
        <path class="cls-4" d="M718.94,996.95l9.97,5.04c2.83,1.43,3.6,5.1,1.6,7.55l-18.26,22.28c-.63.77-.47,1.85.35,2.4l12.3,8.34c1.74,1.18,2.55,3.33,2,5.37l-8.99,33.75c-.25.96-1.14,2.19-1.97,2.73l-13.05,8.62c-.83.55-1.82.25-2.22-.66l-8.97-20.66c-.39-.91-1.49-1.42-2.44-1.13l-12.85,3.88c-.95.29-1.37,1.25-.93,2.14l2.06,4.22c.43.89.15,2.11-.64,2.72l-2.38,1.83c-.78.6-1.22,1.88-.96,2.84l1.52,5.64c.26.96.22,2.51-.09,3.45l-7.54,23.12c-.31.94-1.23,2.17-2.05,2.73l-49.38,33.7"/>
        <g>
          <path class="cls-4" d="M692.81,1156.84l16.52-35.67c.42-.9.39-2.36-.05-3.24l-10.18-20.24c-.44-.88-.13-2.05.69-2.6l1.6-1.06"/>
          <path class="cls-3" d="M692.81,1156.84l16.52-35.67c.42-.9.39-2.36-.05-3.24l-10.18-20.24c-.44-.88-.13-2.05.69-2.6l1.6-1.06"/>
        </g>
      </g>
    </g>
  </g>
  <g id="_1" data-name="1">
    <g>
      <g>
        <g>
          <path class="cls-5" d="M918.96,551.46l-116.42,256.25c-.41.9-.05,2.06.8,2.57l11.01,6.64c.85.51,1.92,1.64,2.39,2.52l23.26,43.44c.47.87.11,1.91-.8,2.32l-99.17,43.91c-.91.4-2.24,1.28-2.97,1.95l-48.15,44.36c-.73.67-.58,1.54.33,1.92l16.92,7.18c2.08.88,3.17,3.17,2.55,5.34l-8.47,29.53c-.27.95.3,1.85,1.28,2l5.58.85c.98.15,2.34-.32,3.02-1.04l10.61-11.18c.68-.72,1.31-2.11,1.4-3.1l4.26-47.1c.09-.99-.65-1.76-1.64-1.73l-1.18.04c-2.37.09-4.39-1.7-4.61-4.06l-.43-4.84"/>
          <path class="cls-5" d="M918.96,551.46l-116.42,256.25c-.41.9-.05,2.06.8,2.57l11.01,6.64c.85.51,1.92,1.64,2.39,2.52l23.26,43.44c.47.87.11,1.91-.8,2.32l-99.17,43.91c-.91.4-2.24,1.28-2.97,1.95l-48.15,44.36c-.73.67-.58,1.54.33,1.92l16.92,7.18c2.08.88,3.17,3.17,2.55,5.34l-8.47,29.53c-.27.95.3,1.85,1.28,2l5.58.85c.98.15,2.34-.32,3.02-1.04l10.61-11.18c.68-.72,1.31-2.11,1.4-3.1l4.26-47.1c.09-.99-.65-1.76-1.64-1.73l-1.18.04c-2.37.09-4.39-1.7-4.61-4.06l-.43-4.84"/>
        </g>
        <g>
          <line class="cls-5" x1="918.96" y1="551.46" x2="827.92" y2="751.85"/>
          <g>
            <line class="cls-5" x1="918.96" y1="551.46" x2="917.85" y2="553.92"/>
            <line class="cls-5" x1="914.78" y1="560.66" x2="830.57" y2="746.02"/>
            <line class="cls-5" x1="829.03" y1="749.39" x2="827.92" y2="751.85"/>
          </g>
        </g>
        <g>
          <path class="cls-5" d="M702.75,1089.46l10.54-6.96c.83-.55,1.71-1.77,1.97-2.73l8.69-32.62c.21-.78-.1-1.6-.77-2.05l-12.91-8.75c-1.96-1.33-2.36-4.06-.86-5.9l17.58-21.45c.63-.77,1.35-1.96,1.6-2.65l-.07-.33-.07-.33c-.51-.53-1.65-1.33-2.53-1.78l-11.8-6.02"/>
          <path class="cls-5" d="M702.75,1089.46l10.54-6.96c.83-.55,1.71-1.77,1.97-2.73l8.69-32.62c.21-.78-.1-1.6-.77-2.05l-12.91-8.75c-1.96-1.33-2.36-4.06-.86-5.9l17.58-21.45c.63-.77,1.35-1.96,1.6-2.65l-.07-.33-.07-.33c-.51-.53-1.65-1.33-2.53-1.78l-11.8-6.02"/>
        </g>
        <polyline class="cls-5" points="791.87 886.47 793.76 891.81 810.97 884.89"/>
        <g>
          <path class="cls-5" d="M690.04,1155.55l15.9-34.33c.42-.9.39-2.36-.05-3.24l-10.74-21.35c-.44-.88-.13-2.05.69-2.6l3.87-2.56"/>
          <path class="cls-5" d="M690.04,1155.55l15.9-34.33c.42-.9.39-2.36-.05-3.24l-10.74-21.35c-.44-.88-.13-2.05.69-2.6l3.87-2.56"/>
          <path class="cls-5" d="M690.04,1155.55l15.9-34.33c.42-.9.39-2.36-.05-3.24l-10.74-21.35c-.44-.88-.13-2.05.69-2.6l3.87-2.56"/>
        </g>
      </g>
      <g>
        <path class="cls-2" d="M918.96,551.46l-116.42,256.25c-.41.9-.05,2.06.8,2.57l11.01,6.64c.85.51,1.92,1.64,2.39,2.52l23.26,43.44c.47.87.11,1.91-.8,2.32l-99.17,43.91c-.91.4-2.24,1.28-2.97,1.95l-48.15,44.36c-.73.67-.58,1.54.33,1.92l16.92,7.18c2.08.88,3.17,3.17,2.55,5.34l-8.47,29.53c-.27.95.3,1.85,1.28,2l5.58.85c.98.15,2.34-.32,3.02-1.04l10.61-11.18c.68-.72,1.31-2.11,1.4-3.1l4.26-47.1c.09-.99-.65-1.76-1.64-1.73l-1.18.04c-2.37.09-4.39-1.7-4.61-4.06l-.43-4.84"/>
        <g>
          <line class="cls-7" x1="918.96" y1="551.46" x2="917.85" y2="553.92"/>
          <line class="cls-1" x1="914.78" y1="560.66" x2="830.57" y2="746.02"/>
          <line class="cls-7" x1="829.03" y1="749.39" x2="827.92" y2="751.85"/>
        </g>
        <path class="cls-2" d="M702.75,1089.46l10.54-6.96c.83-.55,1.71-1.77,1.97-2.73l8.69-32.62c.21-.78-.1-1.6-.77-2.05l-12.91-8.75c-1.96-1.33-2.36-4.06-.86-5.9l17.58-21.45c.63-.77,1.35-1.96,1.6-2.65l-.07-.33-.07-.33c-.51-.53-1.65-1.33-2.53-1.78l-11.8-6.02"/>
        <polyline class="cls-2" points="791.87 886.47 793.76 891.81 810.97 884.89"/>
        <g>
          <path class="cls-2" d="M690.04,1155.55l15.9-34.33c.42-.9.39-2.36-.05-3.24l-10.74-21.35c-.44-.88-.13-2.05.69-2.6l3.87-2.56"/>
          <path class="cls-3" d="M690.04,1155.55l15.9-34.33c.42-.9.39-2.36-.05-3.24l-10.74-21.35c-.44-.88-.13-2.05.69-2.6l3.87-2.56"/>
        </g>
      </g>
    </g>
  </g>
</svg>